<?xml version="1.0" encoding="UTF-8"?>
<svg width="400" height="120" clip-rule="evenodd" fill-rule="evenodd" stroke-linejoin="round" stroke-miterlimit="1.41421" version="1.1" viewBox="0 0 400 120" xmlns="http://www.w3.org/2000/svg" xmlns:cc="http://creativecommons.org/ns#" xmlns:dc="http://purl.org/dc/elements/1.1/" xmlns:rdf="http://www.w3.org/1999/02/22-rdf-syntax-ns#">
 <metadata>
  <rdf:RDF>
   <cc:Work rdf:about="">
    <dc:format>image/svg+xml</dc:format>
    <dc:type rdf:resource="http://purl.org/dc/dcmitype/StillImage"/>
    <dc:title/>
   </cc:Work>
  </rdf:RDF>
 </metadata>
 <g transform="matrix(2.9823 0 0 2.9823 15.71474 15.00008)" fill-rule="nonzero">
  <path d="m46.211 6.749h-6.839c-0.466 0-0.866 0.342-0.939 0.802l-2.766 17.537c-5e-3 0.029-7e-3 0.059-7e-3 0.088 0 0.313 0.257 0.57 0.57 0.57h3.266c0.466 0 0.867-0.343 0.939-0.803l0.746-4.73c0.072-0.46 0.472-0.803 0.938-0.803h2.165c4.505 0 7.105-2.18 7.784-6.5 0.306-1.89 0.013-3.375-0.872-4.415-0.972-1.142-2.696-1.746-4.985-1.746zm0.789 6.405c-0.374 2.454-2.249 2.454-4.062 2.454h-1.032l0.724-4.583c0.044-0.276 0.284-0.481 0.563-0.481h0.473c1.235 0 2.4 0 3.002 0.704 0.359 0.42 0.469 1.044 0.332 1.906zm19.654-0.079h-3.275c-0.279 0-0.519 0.205-0.563 0.481l-0.145 0.916-0.229-0.332c-0.709-1.029-2.29-1.373-3.868-1.373-3.619 0-6.71 2.741-7.312 6.586-0.313 1.918 0.132 3.752 1.22 5.031 0.998 1.176 2.426 1.666 4.125 1.666 2.916 0 4.533-1.875 4.533-1.875l-0.146 0.91c-5e-3 0.03-7e-3 0.06-7e-3 0.09 0 0.312 0.257 0.57 0.569 0.57h2.95c0.466 0 0.867-0.343 0.939-0.803l1.77-11.209c5e-3 -0.03 7e-3 -0.06 7e-3 -0.09 0-0.312-0.256-0.568-0.568-0.568zm-4.565 6.374c-0.316 1.871-1.801 3.127-3.695 3.127-0.951 0-1.711-0.305-2.199-0.883-0.484-0.574-0.668-1.391-0.514-2.301 0.295-1.855 1.805-3.152 3.67-3.152 0.93 0 1.686 0.309 2.184 0.892 0.499 0.589 0.697 1.411 0.554 2.317zm22.007-6.374h-3.291c-0.315 0-0.61 0.157-0.787 0.417l-4.539 6.686-1.924-6.425c-0.121-0.401-0.493-0.678-0.912-0.678h-3.234-2e-3c-0.312 0-0.57 0.257-0.57 0.57 0 0.063 0.011 0.125 0.031 0.184l3.625 10.638-3.408 4.811c-0.068 0.096-0.105 0.212-0.105 0.33 0 0.313 0.257 0.57 0.57 0.57h3.287c0.311 0 0.604-0.152 0.781-0.408l10.946-15.8c0.066-0.095 0.102-0.209 0.102-0.325 0-0.313-0.257-0.57-0.57-0.57z" fill="#253b80"/>
  <path d="m94.992 6.749h-6.84c-0.465 0-0.866 0.342-0.938 0.802l-2.766 17.537c-5e-3 0.029-7e-3 0.059-7e-3 0.089 0 0.312 0.257 0.569 0.569 0.569h3.51c0.326 0 0.606-0.24 0.656-0.562l0.785-4.971c0.072-0.46 0.472-0.803 0.938-0.803h2.164c4.506 0 7.105-2.18 7.785-6.5 0.307-1.89 0.012-3.375-0.873-4.415-0.971-1.142-2.694-1.746-4.983-1.746zm0.789 6.405c-0.373 2.454-2.248 2.454-4.062 2.454h-1.031l0.725-4.583c0.043-0.276 0.283-0.481 0.562-0.481h0.473c1.234 0 2.4 0 3.002 0.704 0.359 0.42 0.468 1.044 0.331 1.906zm19.653-0.079h-3.273c-0.279-1e-3 -0.52 0.205-0.562 0.481l-0.145 0.916-0.23-0.332c-0.709-1.029-2.289-1.373-3.867-1.373-3.619 0-6.709 2.741-7.311 6.586-0.312 1.918 0.131 3.752 1.219 5.031 1 1.176 2.426 1.666 4.125 1.666 2.916 0 4.533-1.875 4.533-1.875l-0.146 0.91c-5e-3 0.03-7e-3 0.06-7e-3 0.09 0 0.313 0.257 0.57 0.57 0.57h2.95c0.466 0 0.866-0.343 0.938-0.803l1.771-11.209c4e-3 -0.029 7e-3 -0.058 7e-3 -0.087 0-0.313-0.258-0.571-0.571-0.571h-1e-3zm-4.565 6.374c-0.314 1.871-1.801 3.127-3.695 3.127-0.949 0-1.711-0.305-2.199-0.883-0.484-0.574-0.666-1.391-0.514-2.301 0.297-1.855 1.805-3.152 3.67-3.152 0.93 0 1.686 0.309 2.184 0.892 0.501 0.589 0.699 1.411 0.554 2.317zm8.426-12.219-2.807 17.858c-5e-3 0.029-7e-3 0.059-7e-3 0.089 0 0.312 0.257 0.569 0.569 0.569h2.822c0.469 0 0.867-0.34 0.939-0.803l2.768-17.536c5e-3 -0.029 7e-3 -0.059 7e-3 -0.089 0-0.312-0.257-0.569-0.569-0.57h-3.16c-0.279 1e-3 -0.519 0.206-0.562 0.482z" fill="#179bd7"/>
  <path d="m7.266 29.154 0.523-3.322-1.165-0.027h-5.563l3.866-24.513c0.024-0.154 0.158-0.269 0.314-0.268h9.38c3.114 0 5.263 0.648 6.385 1.927 0.526 0.6 0.861 1.227 1.023 1.917 0.17 0.724 0.173 1.589 7e-3 2.644l-0.012 0.077v0.676l0.526 0.298c0.402 0.203 0.763 0.479 1.065 0.812 0.45 0.513 0.741 1.165 0.864 1.938 0.127 0.795 0.085 1.741-0.123 2.812-0.24 1.232-0.628 2.305-1.152 3.183-0.462 0.787-1.084 1.468-1.825 2-0.696 0.494-1.523 0.869-2.458 1.109-0.906 0.236-1.939 0.355-3.072 0.355h-0.73c-0.522 0-1.029 0.188-1.427 0.525-0.397 0.341-0.661 0.811-0.744 1.328l-0.055 0.299-0.924 5.855-0.042 0.215c-0.011 0.068-0.03 0.102-0.058 0.125-0.027 0.022-0.061 0.035-0.096 0.035z" fill="#253b80"/>
  <path d="m23.048 7.667c-0.028 0.179-0.06 0.362-0.096 0.55-1.237 6.351-5.469 8.545-10.874 8.545h-2.752c-0.661 0-1.218 0.48-1.321 1.132l-1.409 8.936-0.399 2.533c-6e-3 0.036-9e-3 0.073-9e-3 0.11 0 0.386 0.318 0.704 0.704 0.704h4.881c0.578 0 1.069-0.42 1.16-0.99l0.048-0.248 0.919-5.832 0.059-0.32c0.09-0.572 0.582-0.992 1.16-0.992h0.73c4.729 0 8.431-1.92 9.513-7.476 0.452-2.321 0.218-4.259-0.978-5.622-0.379-0.422-0.832-0.771-1.336-1.03z" fill="#179bd7"/>
  <path d="m21.754 7.151c-0.395-0.114-0.797-0.203-1.203-0.267-0.803-0.123-1.614-0.183-2.426-0.177h-7.352c-0.576 0-1.071 0.423-1.159 0.992l-1.564 9.906-0.045 0.289c0.1-0.649 0.665-1.132 1.321-1.132h2.752c5.405 0 9.637-2.195 10.874-8.545 0.037-0.188 0.068-0.371 0.096-0.55-0.326-0.171-0.667-0.315-1.017-0.429-0.092-0.03-0.184-0.059-0.277-0.087z" fill="#222d65"/>
  <path d="m9.614 7.699c0.088-0.569 0.583-0.993 1.159-0.991h7.352c0.871 0 1.684 0.057 2.426 0.177 0.502 0.079 0.997 0.197 1.481 0.353 0.365 0.121 0.704 0.264 1.017 0.429 0.368-2.347-3e-3 -3.945-1.272-5.392-1.399-1.593-3.924-2.275-7.155-2.275h-9.38c-0.66 0-1.223 0.48-1.325 1.133l-3.907 24.765c-7e-3 0.042-0.01 0.084-0.01 0.126 0 0.442 0.363 0.805 0.805 0.806h5.791l1.454-9.225z" fill="#253b80"/>
 </g>
</svg>
